IKResults
version=1
nRows=37
nColumns=11
inDegrees=yes

Units are S.I. units (second, meters, Newtons, ...)
If the header above contains a line with 'inDegrees', this indicates whether rotational values are in degrees (yes) or radians (no).

endheader
time	pelvis_tilt	pelvis_tx	pelvis_ty	hip_flexion_r	knee_angle_r	ankle_angle_r	hip_flexion_l	knee_angle_l	ankle_angle_l	lumbar_extension
      0.03333333	    -24.25338281	     -2.43935902	      0.89273259	     30.65451691	    -18.20144795	     14.32859215	     27.78512315	    -13.03814611	     12.65232068	     24.46755695
      0.06666667	    -23.98548040	     -2.43696778	      0.89179111	     30.27947783	    -18.01278248	     15.96857852	     26.87773235	    -11.91096607	     13.10138131	     24.50554479
      0.10000000	    -23.82173985	     -2.43482765	      0.89084958	     29.94691711	    -17.74254935	     17.27885835	     26.15847737	    -10.99771704	     13.51873560	     24.61573561
      0.13333333	    -23.87471411	     -2.43321300	      0.88980302	     29.83090561	    -17.50612828	     18.14269529	     25.82400264	    -10.46809067	     13.95139475	     24.89468580
      0.16666667	    -23.95622631	     -2.43225183	      0.88896047	     29.73849612	    -17.25608771	     18.59466122	     25.67778368	    -10.26904271	     14.35059122	     25.10350379
      0.20000000	    -24.10384704	     -2.43178303	      0.88831239	     29.72162235	    -16.97321107	     18.65563370	     25.67567395	    -10.18440569	     14.62256011	     25.32501993
      0.23333333	    -24.31166124	     -2.43167395	      0.88778213	     29.85291314	    -16.80390095	     18.52874453	     25.82249978	    -10.19867914	     14.76212615	     25.58191384
      0.26666667	    -24.37615541	     -2.43161154	      0.88759154	     29.85853856	    -16.65552590	     18.30830773	     25.84722644	    -10.20181462	     14.69544714	     25.66962694
      0.30000000	    -24.41199126	     -2.43142134	      0.88747082	     29.87097639	    -16.58293362	     18.07523673	     25.84044553	    -10.14696313	     14.43159250	     25.74866893
      0.33333333	    -24.38049622	     -2.43106244	      0.88743191	     29.83518968	    -16.57308172	     17.86899445	     25.77483391	    -10.06112378	     14.06762587	     25.77165677
      0.36666667	    -24.26775499	     -2.43053913	      0.88749149	     29.73204955	    -16.62061662	     17.68017682	     25.59937123	     -9.88009535	     13.78920549	     25.71430109
      0.40000000	    -23.99392449	     -2.42999809	      0.88773683	     29.49232209	    -16.73377227	     17.50641706	     25.29563010	     -9.73676821	     13.78888450	     25.45557047
      0.43333333	    -23.90879062	     -2.42955603	      0.88770852	     29.52924307	    -16.96558509	     17.30903387	     25.22196846	     -9.62495838	     13.94737212	     25.40869532
      0.46666667	    -23.81612977	     -2.42926014	      0.88771451	     29.59718105	    -17.21572037	     17.09532398	     25.18061762	     -9.59210787	     14.19111622	     25.33259399
      0.50000000	    -23.74259325	     -2.42911163	      0.88772080	     29.68546919	    -17.43717779	     16.89349852	     25.18544921	     -9.64464145	     14.45522623	     25.26346489
      0.53333333	    -23.70301983	     -2.42904057	      0.88770508	     29.74514890	    -17.55678657	     16.70329879	     25.22381234	     -9.74201116	     14.69520119	     25.22714661
      0.56666667	    -23.70429583	     -2.42896187	      0.88763027	     29.73416904	    -17.51785807	     16.59141132	     25.27031852	     -9.80766467	     14.90500778	     25.23944013
      0.60000000	    -23.72772338	     -2.42886542	      0.88753766	     29.66375354	    -17.40395457	     16.61772867	     25.30933979	     -9.80813327	     15.03755638	     25.27451028
      0.63333333	    -23.76376068	     -2.42879812	      0.88751675	     29.49831929	    -17.14901224	     16.76296031	     25.41477313	     -9.87805300	     15.09289363	     25.31471658
      0.66666667	    -23.80182681	     -2.42877702	      0.88757324	     29.32916883	    -16.94912363	     17.12008096	     25.53569653	     -9.92193138	     15.05325542	     25.34785785
      0.70000000	    -23.84027652	     -2.42884136	      0.88770904	     29.15649252	    -16.75006968	     17.53836965	     25.69230989	    -10.00398098	     14.97718250	     25.36989404
      0.73333333	    -23.87862756	     -2.42901722	      0.88785889	     29.01300481	    -16.54753408	     17.85825029	     25.86275906	    -10.12833271	     14.92586720	     25.37806187
      0.76666667	    -23.91026360	     -2.42928663	      0.88797315	     28.90974494	    -16.32901053	     17.92766088	     26.02305564	    -10.30741783	     14.91262106	     25.36861134
      0.80000000	    -23.92827971	     -2.42957474	      0.88802593	     28.82862745	    -16.07684242	     17.72614774	     26.14163878	    -10.48677045	     14.93388667	     25.34294711
      0.83333333	    -23.92948431	     -2.42986814	      0.88806353	     28.75407785	    -15.78945032	     17.28577069	     26.23651593	    -10.66221210	     14.93230942	     25.29737915
      0.86666667	    -23.91725847	     -2.43012762	      0.88810684	     28.69899958	    -15.53549427	     16.79920241	     26.30437184	    -10.79587729	     14.87249879	     25.23779258
      0.90000000	    -23.89369550	     -2.43033769	      0.88814156	     28.69828684	    -15.43335884	     16.48930942	     26.34399388	    -10.88597569	     14.77501120	     25.16727494
      0.93333333	    -23.87352370	     -2.43038700	      0.88814985	     28.73256156	    -15.45344858	     16.40363338	     26.35176305	    -10.92077627	     14.74857708	     25.12017812
      0.96666667	    -23.83841430	     -2.43033298	      0.88820389	     28.75845562	    -15.53761251	     16.45941656	     26.38645541	    -11.04492234	     14.78256024	     25.07315970
      1.00000000	    -23.82647276	     -2.43017703	      0.88831180	     28.75883291	    -15.54616676	     16.43741988	     26.47597379	    -11.22748556	     14.85157781	     25.07598184
      1.03333333	    -23.84134911	     -2.43001652	      0.88850269	     28.75249007	    -15.46627023	     16.20660526	     26.61731617	    -11.44910208	     14.90156009	     25.12205979
      1.06666667	    -23.95015625	     -2.42987025	      0.88861837	     28.84276209	    -15.35120135	     15.81706224	     26.83508970	    -11.63901108	     15.00294226	     25.28817600
      1.10000000	    -24.14779546	     -2.42986819	      0.88865881	     29.10557258	    -15.35658576	     15.42172681	     27.10581925	    -11.74216748	     14.95463110	     25.54796685
      1.13333333	    -24.26741989	     -2.42994632	      0.88876977	     29.30998847	    -15.40331493	     15.14069199	     27.23023920	    -11.72529106	     14.85197373	     25.70270132
      1.16666667	    -24.30016612	     -2.43015287	      0.88890942	     29.44621939	    -15.51617817	     15.05009019	     27.18193464	    -11.55018948	     14.62458370	     25.73396060
      1.20000000	    -24.33914226	     -2.43045361	      0.88887938	     29.58327302	    -15.66219843	     15.12391550	     27.06319627	    -11.25079678	     14.34672310	     25.75964347
      1.23333333	    -24.36089248	     -2.43072124	      0.88869167	     29.65952122	    -15.79060569	     15.39279264	     26.84257837	    -10.84979739	     14.07109293	     25.76641747
